<svg preserveAspectRatio="xMidYMid meet" data-bbox="45.762 26.417 338.698 136.973" viewBox="45.762 26.417 338.698 136.973" xmlns="http://www.w3.org/2000/svg" data-type="color" role="presentation" aria-hidden="true" aria-label="">
    <g>
        <path d="M85.26 163.39c-.42 0-.83 0-1.24-.01-12.6-.23-21.44-3.72-21.81-3.87-.97-.39-1.6-1.35-1.57-2.39l1.01-38.01-13.31.42c-.75.03-1.48-.29-1.97-.87-.49-.57-.7-1.34-.57-2.08l7.98-44.89c.11-1.24.97-10.21 4.69-19.96 5.33-13.97 14.02-22.71 25.11-25.26a2.51 2.51 0 0 1 1.13 4.89C61.76 36.63 58.8 71.84 58.77 72.19l-.03.25-7.46 41.97 12.88-.4c.69-.02 1.36.24 1.85.73s.76 1.15.74 1.84l-1.03 38.83c7.01 2.22 35.38 9.28 59.44-12.19 1.03-.92 2.62-.83 3.54.2.92 1.03.83 2.62-.2 3.54-15.11 13.47-31.63 16.43-43.24 16.43z" fill="#464951" data-color="1"></path>
        <path fill="#464951" d="M89.95 88.46a5.61 5.61 0 1 1-11.22 0 5.61 5.61 0 0 1 11.22 0z" data-color="1"></path>
        <path d="M111.64 80.08v-.03.03z" fill="#ee4e24" data-color="2"></path>
        <path d="M93.91 50.72c-.88-4.9.38-9.46 3.66-13.27l-.77-.11c-11.26-2.5-22.39 6.67-21.52 17.52.79 8.86 6.12 12.72 9.84 14.36-.28-2.48-.23-5.63.92-8.78 1.37-3.95 4.12-7.29 7.87-9.72z" fill="#9536e9" data-color="3"></path>
        <path d="M97.11 48.98c2.07-.93 4.36-1.63 6.8-2.06 3.89-.68 7.7-.58 11.19.2l.15-.12c3.31-2.3 7.91-3.17 12.96-2.46 4.83.68 9.67 2.75 13.63 5.82-1.52-4.79-6.5-9.86-6.5-9.86-13.07-10.29-25.5-6.78-30.15-4.85-.9.48-2.91 1.69-4.71 3.64-2.59 2.83-3.72 6.09-3.37 9.69z" fill="#9536e9" data-color="3"></path>
        <path d="M114.62 63.51c.43-.11 5.99-1.75 9.11 2.17.25.26.49.55.72.86a1.705 1.705 0 1 1-2.71 2.07c-.58-.75-1.18-1.28-1.79-1.64-.45-.27-1.84-1.13-3.61-.25-1.01.48-2.04 1.65-1.65 3.35.47 1.46 1.4 2.56 2.69 3.18 1.74.83 4.03.77 6.47-.17 5.14-2.39 4.32-9.22 4.26-9.66-.49-2.62-1.59-4.88-3.26-6.71-.03-.03-.05-.06-.07-.08-4.22-5.28-12.18-7.77-20.28-6.36-7.46 1.3-13.3 5.62-15.23 11.28 0 .01-.01.02-.01.04-1.19 3.23-.92 6.55-.5 8.75h.02c.43 1.73 1.05 2.83 1.57 3.5.92 1.57 3.18 2.63 3.96 2.9 4.92 1.67 9.14-2.66 10.01-3.54.89-2.15 2.12-4.25 3.82-5.97 1.82-1.86 3.99-3.1 6.48-3.72z" fill="#9536e9" data-color="3"></path>
        <path d="M146.28 63.83c-.9-4.58-2.88-7.44-6.45-10.72-6.29-4.9-14.61-6.64-20.26-4.53 3.1 1.36 5.79 3.35 7.84 5.89 2.09 2.31 3.46 5.13 4.06 8.38 0 .02.01.04.01.06.01.1.36 2.45-.19 5.21-.77 3.83-2.86 6.63-6.06 8.09-.03.01-.06.03-.09.04-1.53.6-3.05.93-4.49.99-1.71.07-3.32-.23-4.74-.91-2.15-1.03-3.74-2.91-4.49-5.29l-.03-.1a6.72 6.72 0 0 1-.18-1.93c-.22.19-.44.39-.65.61-1.57 1.6-2.66 3.63-3.42 5.7-.44 3.33 3.5 7.95 6.34 9.79 7.95 5.16 19.43 2.92 25.23-1.52 8.89-5.75 7.78-18.71 7.57-19.76z" fill="#9536e9" data-color="3"></path>
        <path d="M109.13 143.13c-.69 0-1.37-.28-1.86-.83a2.51 2.51 0 0 1 0-3.36c.18-.2 18.42-20.7 16.81-40.58a2.509 2.509 0 0 1 5-.4c.75 9.32-2.07 19.63-8.41 30.65-.13.22-.26.44-.38.66 1.49-1.11 3.06-2.29 4.7-3.51 7.41-6.35 14.43-10.23 20.88-11.54 5.11-1.04 8.03-.02 8.35.1 1.25.47 1.91 1.85 1.5 3.12-5 15.34-20.75 15.52-28.38 13.48-.2-.05-.39-.13-.56-.23-9.12 6.82-16.09 11.91-16.16 11.96-.46.33-.97.48-1.49.48zm22.77-16.5c4.79.51 13.56.19 17.83-7.86-.91.03-2.04.16-3.38.47-3.18.73-8.1 2.62-14.45 7.39z" fill="#464951" data-color="1"></path>
        <path d="M179.49 87.46V48.01h26.85v8.09h-16.82v8.97h15.29v7.68h-15.29v14.71h-10.03z" fill="#464951" data-color="1"></path>
        <path d="M237.13 87.46h-26.36V48.01h10.04v31.36h16.32v8.09z" fill="#464951" data-color="1"></path>
        <path d="M277.96 67.75c0 12.58-7.52 20.4-19.47 20.4-11.98 0-19.5-7.82-19.5-20.4s7.55-20.43 19.5-20.43 19.47 7.85 19.47 20.43zm-28.74 0c0 7.49 3.64 12.25 9.27 12.25 5.61 0 9.27-4.76 9.27-12.25 0-7.52-3.66-12.28-9.27-12.28s-9.27 4.76-9.27 12.28z" fill="#464951" data-color="1"></path>
        <path d="M292.89 87.46h-10.04V48.01h16.95c9.84 0 15.15 4.87 15.15 13.02 0 4.84-2.41 9.27-6.73 11.16l7.88 15.29h-11.27l-6.75-13.81h-5.2v13.79zm0-20.67h5.93c3.69 0 5.88-2.16 5.88-5.58 0-3.36-2.32-5.63-5.91-5.63h-5.91v11.21z" fill="#464951" data-color="1"></path>
        <path d="M347.03 87.46h-27.04V48.01h27.04v8.09h-17.01v7.85h16v7.38h-16v8.04h17.01v8.09z" fill="#464951" data-color="1"></path>
        <path d="M360.97 76.03c.36 2.71 3.39 4.51 7.11 4.51 3.91 0 6.45-1.75 6.45-4.13 0-2.19-1.67-3.25-6.15-4.18l-5.17-1.01c-7.27-1.39-11.02-5.33-11.02-11.32 0-7.66 6.56-12.58 15.7-12.58 9.87 0 15.7 4.79 15.8 12.2h-9.24c-.19-2.87-2.84-4.59-6.45-4.59-3.5 0-5.82 1.59-5.82 3.99 0 2.13 1.75 3.31 5.88 4.16l5.11.96c7.79 1.5 11.29 5.03 11.29 11.27 0 7.85-6.48 12.85-16.65 12.85-10.06 0-16.27-4.46-16.38-12.11h9.54z" fill="#464951" data-color="1"></path>
        <path d="M205.85 149.15h-26.36v-39.46h10.04v31.36h16.32v8.1z" fill="#464951" data-color="1"></path>
        <path d="M233.91 140.48H221l-2.52 8.67h-10.23l13.26-39.46h12.28l13.26 39.46h-10.66l-2.48-8.67zm-10.97-7.22h9l-4.38-15.2h-.22l-4.4 15.2z" fill="#464951" data-color="1"></path>
        <path d="M250.83 149.15v-39.46h18.46c7.77 0 12.47 3.75 12.47 9.84 0 4.43-3.36 7.96-7.74 8.56v.22c5.33.25 9.57 4.21 9.57 9.46 0 6.92-5.36 11.38-13.81 11.38h-18.95zm10.04-23.38h5.28c3.66 0 5.82-1.72 5.82-4.57 0-2.76-1.97-4.4-5.33-4.4h-5.77v8.97zm6.07 16.27c4.13 0 6.45-1.8 6.45-5.14 0-3.23-2.35-5.03-6.51-5.03h-6.02v10.17h6.08z" fill="#464951" data-color="1"></path>
    </g>
</svg>